<svg xmlns="http://www.w3.org/2000/svg" width="28" height="28" viewBox="0 0 28 28">
  <path fill="#C2B6AA" fill-rule="evenodd" d="M28,14 C28,6.26800781 21.7319922,0 14,0 C6.26800781,0 0,6.26800781 0,14 C0,20.9878047 5.11959766,26.7796484 11.8125,27.8299219 L11.8125,18.046875 L8.2578125,18.046875 L8.2578125,14 L11.8125,14 L11.8125,10.915625 C11.8125,7.406875 13.9026016,5.46875 17.1005078,5.46875 C18.6322227,5.46875 20.234375,5.7421875 20.234375,5.7421875 L20.234375,9.1875 L18.4690078,9.1875 C16.7298633,9.1875 16.1875,10.2666758 16.1875,11.3738242 L16.1875,14 L20.0703125,14 L19.4496094,18.046875 L16.1875,18.046875 L16.1875,27.8299219 C22.8804023,26.7796484 28,20.9878047 28,14"/>
</svg>
