<svg xmlns="http://www.w3.org/2000/svg" width="32" height="23" viewBox="0 0 32 23">
  <path fill="#C2B6AA" fill-rule="evenodd" d="M12.7272727,16.0307273 L12.7272727,6.51472727 L21.0909091,11.2729091 L12.7272727,16.0307273 Z M31.3312727,3.52054545 C30.9632727,2.13472727 29.8789091,1.04345455 28.5021818,0.673090909 C26.0067273,0 16,0 16,0 C16,0 5.99327273,0 3.49781818,0.673090909 C2.12109091,1.04345455 1.03672727,2.13472727 0.668727273,3.52054545 C0,6.03218182 0,11.2727273 0,11.2727273 C0,11.2727273 0,16.5130909 0.668727273,19.0249091 C1.03672727,20.4107273 2.12109091,21.502 3.49781818,21.8725455 C5.99327273,22.5454545 16,22.5454545 16,22.5454545 C16,22.5454545 26.0067273,22.5454545 28.5021818,21.8725455 C29.8789091,21.502 30.9632727,20.4107273 31.3312727,19.0249091 C32,16.5130909 32,11.2727273 32,11.2727273 C32,11.2727273 32,6.03218182 31.3312727,3.52054545 L31.3312727,3.52054545 Z"/>
</svg>
